<svg width="15" height="15" viewBox="0 0 15 15" fill="none" xmlns="http://www.w3.org/2000/svg">
<path d="M8.36377 1C8.36377 0.447715 7.91605 -2.41411e-08 7.36377 0C6.81148 2.41411e-08 6.36377 0.447715 6.36377 1L8.36377 1ZM6.65666 14.7071C7.04719 15.0976 7.68035 15.0976 8.07088 14.7071L14.4348 8.34315C14.8254 7.95262 14.8254 7.31946 14.4348 6.92893C14.0443 6.53841 13.4111 6.53841 13.0206 6.92893L7.36377 12.5858L1.70692 6.92893C1.31639 6.53841 0.683226 6.53841 0.292702 6.92893C-0.0978224 7.31946 -0.0978224 7.95262 0.292702 8.34315L6.65666 14.7071ZM6.36377 1L6.36377 14L8.36377 14L8.36377 1L6.36377 1Z" fill="#22253B"/>
</svg>
