<svg width="467" height="157" viewBox="0 0 467 157" fill="none" xmlns="http://www.w3.org/2000/svg">
<rect width="311" height="45.1331" rx="22.5666" fill="#5096FF"/>
<path d="M35.5448 16.9771H30.7848C28.8128 16.9771 27.2148 18.5751 27.2148 20.5471C27.2148 22.2981 28.5068 23.7771 30.1898 24.0661L26.8748 28.8771H28.2348L31.4988 24.1171H34.3548V28.8771H35.5448V16.9771ZM30.7848 22.9951C29.4758 22.9951 28.4048 21.8901 28.4048 20.5471C28.4048 19.1871 29.4758 18.0991 30.7848 18.0991H34.3548V22.9951H30.7848ZM42.4828 24.5081C43.1968 24.1171 43.5538 23.4201 43.5538 22.6041C43.5538 21.3121 42.4828 20.1731 40.6128 20.1731C39.0488 20.1731 38.0458 20.9381 37.5528 21.9921L38.4878 22.5361C38.8448 21.6691 39.6268 21.2611 40.6128 21.2611C41.7518 21.2611 42.4318 21.8901 42.4318 22.6721C42.4318 23.5221 41.8538 24.0491 40.8678 24.0491H39.9668V25.1371H41.2078C42.2108 25.1371 42.8398 25.6981 42.8398 26.4801C42.8398 27.3301 42.1428 27.9931 40.7828 27.9931C39.3888 27.9931 38.6748 27.3471 38.3688 26.4801L37.4168 27.0411C37.8418 28.1291 38.8278 29.0811 40.7828 29.0811C42.9248 29.0811 43.9618 27.8571 43.9618 26.5481C43.9618 25.6131 43.4348 24.8651 42.4828 24.5081ZM49.1181 23.6071H46.7891V20.3771H45.6671V28.8771H49.1181C50.6651 28.8771 51.9571 27.8061 51.9571 26.2421C51.9571 24.6781 50.6651 23.6071 49.1181 23.6071ZM53.1471 20.3771V28.8771H54.2691V20.3771H53.1471ZM49.1181 27.7891H46.7891V24.6951H49.1181C50.0361 24.6951 50.8351 25.2731 50.8351 26.2421C50.8351 27.2111 50.0361 27.7891 49.1181 27.7891ZM63.5253 28.8771L58.9693 24.4571L63.3553 20.3771H61.8253L57.7793 24.1341V20.3771H56.6573V28.8771H57.7793V24.7801L62.0293 28.8771H63.5253ZM76.4477 20.3771H69.3077V28.8771H70.4297V21.4651H75.3257V28.8771H76.4477V20.3771ZM83.3764 20.1731C81.8634 20.1731 80.6564 20.9041 79.9424 22.0431V20.3771H78.8204V32.2771H79.9424V27.2111C80.6564 28.3501 81.8634 29.0811 83.3764 29.0811C85.7734 29.0811 87.7624 27.1431 87.7624 24.6271C87.7624 22.1111 85.7734 20.1731 83.3764 20.1731ZM83.2914 27.9931C81.4044 27.9931 79.9424 26.5141 79.9424 24.6271C79.9424 22.7401 81.4044 21.2611 83.2914 21.2611C85.1784 21.2611 86.6404 22.7401 86.6404 24.6271C86.6404 26.5141 85.1784 27.9931 83.2914 27.9931ZM93.589 29.0811C96.071 29.0811 98.06 27.1431 98.06 24.6271C98.06 22.1111 96.071 20.1731 93.589 20.1731C91.107 20.1731 89.118 22.1111 89.118 24.6271C89.118 27.1431 91.107 29.0811 93.589 29.0811ZM93.589 27.9931C91.702 27.9931 90.24 26.5141 90.24 24.6271C90.24 22.7401 91.702 21.2611 93.589 21.2611C95.476 21.2611 96.938 22.7401 96.938 24.6271C96.938 26.5141 95.476 27.9931 93.589 27.9931ZM105.378 20.3771H99.9376V28.8771H101.06V21.4651H105.378V20.3771ZM111.3 20.1731C109.787 20.1731 108.58 20.9041 107.866 22.0431V20.3771H106.744V32.2771H107.866V27.2111C108.58 28.3501 109.787 29.0811 111.3 29.0811C113.697 29.0811 115.686 27.1431 115.686 24.6271C115.686 22.1111 113.697 20.1731 111.3 20.1731ZM111.215 27.9931C109.328 27.9931 107.866 26.5141 107.866 24.6271C107.866 22.7401 109.328 21.2611 111.215 21.2611C113.102 21.2611 114.564 22.7401 114.564 24.6271C114.564 26.5141 113.102 27.9931 111.215 27.9931ZM124.862 20.3771V22.0431C124.148 20.9041 122.941 20.1731 121.428 20.1731C119.031 20.1731 117.042 22.1111 117.042 24.6271C117.042 27.1431 119.031 29.0811 121.428 29.0811C122.941 29.0811 124.148 28.3501 124.862 27.2111V28.8771H125.984V20.3771H124.862ZM121.513 27.9931C119.626 27.9931 118.164 26.5141 118.164 24.6271C118.164 22.7401 119.626 21.2611 121.513 21.2611C123.4 21.2611 124.862 22.7401 124.862 24.6271C124.862 26.5141 123.4 27.9931 121.513 27.9931ZM136.689 20.3771H135.397L132.524 25.0351L129.651 20.3771H128.359V28.8771H129.481V22.0941L132.456 26.9221H132.592L135.567 22.0941V28.8771H136.689V20.3771ZM147.397 20.3771H146.105L143.232 25.0351L140.359 20.3771H139.067V28.8771H140.189V22.0941L143.164 26.9221H143.3L146.275 22.0941V28.8771H147.397V20.3771ZM155.963 20.3771L150.897 26.9221V20.3771H149.775V28.8771H150.727L155.793 22.3321V28.8771H156.915V20.3771H155.963ZM163.844 20.1731C162.331 20.1731 161.124 20.9041 160.41 22.0431V20.3771H159.288V32.2771H160.41V27.2111C161.124 28.3501 162.331 29.0811 163.844 29.0811C166.241 29.0811 168.23 27.1431 168.23 24.6271C168.23 22.1111 166.241 20.1731 163.844 20.1731ZM163.759 27.9931C161.872 27.9931 160.41 26.5141 160.41 24.6271C160.41 22.7401 161.872 21.2611 163.759 21.2611C165.646 21.2611 167.108 22.7401 167.108 24.6271C167.108 26.5141 165.646 27.9931 163.759 27.9931ZM174.057 29.0811C176.539 29.0811 178.528 27.1431 178.528 24.6271C178.528 22.1111 176.539 20.1731 174.057 20.1731C171.575 20.1731 169.586 22.1111 169.586 24.6271C169.586 27.1431 171.575 29.0811 174.057 29.0811ZM174.057 27.9931C172.17 27.9931 170.708 26.5141 170.708 24.6271C170.708 22.7401 172.17 21.2611 174.057 21.2611C175.944 21.2611 177.406 22.7401 177.406 24.6271C177.406 26.5141 175.944 27.9931 174.057 27.9931ZM185.811 24.5081C186.474 24.1171 186.797 23.4711 186.797 22.6551C186.797 21.3631 185.896 20.3771 184.196 20.3771H180.405V28.8771H184.536C186.338 28.8771 187.205 27.8061 187.205 26.4971C187.205 25.5791 186.729 24.8481 185.811 24.5081ZM184.196 21.4651C185.165 21.4651 185.675 21.9411 185.675 22.7231C185.675 23.5731 185.182 24.0491 184.196 24.0491H181.527V21.4651H184.196ZM184.536 27.7891H181.527V25.1371H184.536C185.539 25.1371 186.083 25.6471 186.083 26.4291C186.083 27.2791 185.556 27.7891 184.536 27.7891ZM196.215 20.3771V22.0431C195.501 20.9041 194.294 20.1731 192.781 20.1731C190.384 20.1731 188.395 22.1111 188.395 24.6271C188.395 27.1431 190.384 29.0811 192.781 29.0811C194.294 29.0811 195.501 28.3501 196.215 27.2111V28.8771H197.337V20.3771H196.215ZM192.866 27.9931C190.979 27.9931 189.517 26.5141 189.517 24.6271C189.517 22.7401 190.979 21.2611 192.866 21.2611C194.753 21.2611 196.215 22.7401 196.215 24.6271C196.215 26.5141 194.753 27.9931 192.866 27.9931ZM205.731 20.3771V24.0831H200.835V20.3771H199.713V28.8771H200.835V25.1711H205.731V28.8771H206.853V20.3771H205.731ZM215.414 20.3771L210.348 26.9221V20.3771H209.226V28.8771H210.178L215.244 22.3321V28.8771H216.366V20.3771H215.414ZM224.858 20.3771H221.407C219.86 20.3771 218.568 21.4481 218.568 23.0121C218.568 24.4061 219.588 25.3751 220.914 25.5791L218.228 28.8771H219.656L222.274 25.6131H223.736V28.8771H224.858V20.3771ZM221.407 24.5591C220.489 24.5591 219.69 23.9811 219.69 23.0121C219.69 22.0431 220.489 21.4651 221.407 21.4651H223.736V24.5591H221.407ZM235.908 16.9771H231.658V28.8771H232.848V24.4571H235.908C238.05 24.4571 239.648 22.8421 239.648 20.7171C239.648 18.5751 238.05 16.9771 235.908 16.9771ZM235.908 23.3351H232.848V18.0991H235.908C237.387 18.0991 238.458 19.1871 238.458 20.7171C238.458 22.2301 237.387 23.3351 235.908 23.3351ZM247.636 20.3771L244.882 27.5001L241.686 20.3771H240.496L244.304 28.9281L244.083 29.4551C243.624 30.5601 242.859 31.3421 241.754 31.2231V32.2771C243.284 32.3961 244.542 31.2911 245.188 29.6591L248.826 20.3771H247.636ZM254.687 21.4651V20.3771H252.239V17.9971L251.117 18.3371V20.3771H249.332V21.4651H251.117V26.6161C251.117 28.6561 252.392 29.2171 254.687 28.8771V27.8911C253.038 27.9591 252.239 28.0781 252.239 26.6161V21.4651H254.687ZM260.535 20.1731C259.328 20.1731 258.342 20.6321 257.679 21.7031V16.9771H256.557V28.8771H257.679V24.4231C257.679 22.1451 258.937 21.2611 260.433 21.2611C261.912 21.2611 262.745 22.1451 262.745 23.6581V28.8771H263.867V23.6581C263.867 21.5331 262.609 20.1731 260.535 20.1731ZM269.997 29.0811C272.479 29.0811 274.468 27.1431 274.468 24.6271C274.468 22.1111 272.479 20.1731 269.997 20.1731C267.515 20.1731 265.526 22.1111 265.526 24.6271C265.526 27.1431 267.515 29.0811 269.997 29.0811ZM269.997 27.9931C268.11 27.9931 266.648 26.5141 266.648 24.6271C266.648 22.7401 268.11 21.2611 269.997 21.2611C271.884 21.2611 273.346 22.7401 273.346 24.6271C273.346 26.5141 271.884 27.9931 269.997 27.9931ZM280.324 20.1731C279.117 20.1731 278.131 20.6321 277.468 21.7031V20.3771H276.346V28.8771H277.468V24.4231C277.468 22.1451 278.726 21.2611 280.222 21.2611C281.701 21.2611 282.534 22.1451 282.534 23.6581V28.8771H283.656V23.6581C283.656 21.5331 282.398 20.1731 280.324 20.1731Z" fill="white"/>
<rect y="110" width="258" height="45" rx="22.5" fill="#50C0FF"/>
<path d="M36.3875 139.204C39.8555 139.204 42.5415 136.45 42.5415 133.05C42.5415 129.65 39.8555 126.896 36.3875 126.896C32.9195 126.896 30.2335 129.65 30.2335 133.05C30.2335 136.45 32.9195 139.204 36.3875 139.204ZM36.3875 138.048C33.5655 138.048 31.4235 135.821 31.4235 133.05C31.4235 130.279 33.5655 128.052 36.3875 128.052C39.2095 128.052 41.3515 130.279 41.3515 133.05C41.3515 135.821 39.2095 138.048 36.3875 138.048ZM50.5266 130.5H43.3866V131.588H46.3956V139H47.5176V131.588H50.5266V130.5ZM58.3493 130.5H52.2633V135.379C52.2633 137.538 51.5663 138.065 50.3593 137.946V139C52.0593 139.119 53.3853 138.405 53.3853 135.379V131.588H57.2273V139H58.3493V130.5ZM68.0359 130.5V132.166C67.3219 131.027 66.1149 130.296 64.6019 130.296C62.2049 130.296 60.2159 132.234 60.2159 134.75C60.2159 137.266 62.2049 139.204 64.6019 139.204C66.1149 139.204 67.3219 138.473 68.0359 137.334V139H69.1579V130.5H68.0359ZM64.6869 138.116C62.7999 138.116 61.3379 136.637 61.3379 134.75C61.3379 132.863 62.7999 131.384 64.6869 131.384C66.5739 131.384 68.0359 132.863 68.0359 134.75C68.0359 136.637 66.5739 138.116 64.6869 138.116ZM78.6736 137.912V130.5H72.5876V134.699C72.5876 136.365 72.2646 137.198 71.7206 137.912H70.6836V141.278H71.8056V139H78.7416V141.278H79.8636V137.912H78.6736ZM73.0806 137.912C73.4886 137.096 73.7096 136.093 73.7096 134.699V131.588H77.5516V137.912H73.0806ZM88.4289 139L83.8729 134.58L88.2589 130.5H86.7289L82.6829 134.257V130.5H81.5609V139H82.6829V134.903L86.9329 139H88.4289ZM96.4246 130.5V132.166C95.7106 131.027 94.5036 130.296 92.9906 130.296C90.5936 130.296 88.6046 132.234 88.6046 134.75C88.6046 137.266 90.5936 139.204 92.9906 139.204C94.5036 139.204 95.7106 138.473 96.4246 137.334V139H97.5466V130.5H96.4246ZM93.0756 138.116C91.1886 138.116 89.7266 136.637 89.7266 134.75C89.7266 132.863 91.1886 131.384 93.0756 131.384C94.9626 131.384 96.4246 132.863 96.4246 134.75C96.4246 136.637 94.9626 138.116 93.0756 138.116ZM110.36 130.5L105.294 137.045V130.5H104.172V139H105.124L110.19 132.455V139H111.312V130.5H110.36ZM124.055 130.5H116.915V131.588H119.924V139H121.046V131.588H124.055V130.5ZM129.017 130.296C126.382 130.296 124.58 132.251 124.58 134.75C124.58 137.317 126.416 139.204 129.102 139.204C130.819 139.204 132.128 138.405 132.842 137.249L131.856 136.671C131.397 137.487 130.462 138.116 129.119 138.116C127.317 138.116 125.974 137.045 125.736 135.311H133.199C133.216 135.141 133.233 134.954 133.233 134.784C133.233 132.455 131.618 130.296 129.017 130.296ZM129.017 131.384C130.479 131.384 131.839 132.353 132.077 134.223H125.736C125.957 132.557 127.232 131.384 129.017 131.384ZM138.979 139.204C140.645 139.204 142.09 138.337 142.787 136.994L141.852 136.45C141.308 137.436 140.271 138.116 138.979 138.116C137.092 138.116 135.63 136.637 135.63 134.75C135.63 132.863 137.092 131.384 138.979 131.384C140.254 131.384 141.325 132.047 141.784 133.05L142.702 132.523C142.09 131.18 140.662 130.296 138.979 130.296C136.412 130.296 134.508 132.234 134.508 134.75C134.508 137.266 136.412 139.204 138.979 139.204ZM150.352 130.5H143.212V131.588H146.221V139H147.343V131.588H150.352V130.5ZM157.907 130.5L152.841 137.045V130.5H151.719V139H152.671L157.737 132.455V139H158.859V130.5H157.907ZM165.788 130.296C164.275 130.296 163.068 131.027 162.354 132.166V130.5H161.232V142.4H162.354V137.334C163.068 138.473 164.275 139.204 165.788 139.204C168.185 139.204 170.174 137.266 170.174 134.75C170.174 132.234 168.185 130.296 165.788 130.296ZM165.703 138.116C163.816 138.116 162.354 136.637 162.354 134.75C162.354 132.863 163.816 131.384 165.703 131.384C167.59 131.384 169.052 132.863 169.052 134.75C169.052 136.637 167.59 138.116 165.703 138.116ZM176 139.204C178.482 139.204 180.471 137.266 180.471 134.75C180.471 132.234 178.482 130.296 176 130.296C173.518 130.296 171.529 132.234 171.529 134.75C171.529 137.266 173.518 139.204 176 139.204ZM176 138.116C174.113 138.116 172.651 136.637 172.651 134.75C172.651 132.863 174.113 131.384 176 131.384C177.887 131.384 179.349 132.863 179.349 134.75C179.349 136.637 177.887 138.116 176 138.116ZM187.755 134.631C188.418 134.24 188.741 133.594 188.741 132.778C188.741 131.486 187.84 130.5 186.14 130.5H182.349V139H186.48C188.282 139 189.149 137.929 189.149 136.62C189.149 135.702 188.673 134.971 187.755 134.631ZM186.14 131.588C187.109 131.588 187.619 132.064 187.619 132.846C187.619 133.696 187.126 134.172 186.14 134.172H183.471V131.588H186.14ZM186.48 137.912H183.471V135.26H186.48C187.483 135.26 188.027 135.77 188.027 136.552C188.027 137.402 187.5 137.912 186.48 137.912ZM198.159 130.5V132.166C197.445 131.027 196.238 130.296 194.725 130.296C192.328 130.296 190.339 132.234 190.339 134.75C190.339 137.266 192.328 139.204 194.725 139.204C196.238 139.204 197.445 138.473 198.159 137.334V139H199.281V130.5H198.159ZM194.81 138.116C192.923 138.116 191.461 136.637 191.461 134.75C191.461 132.863 192.923 131.384 194.81 131.384C196.697 131.384 198.159 132.863 198.159 134.75C198.159 136.637 196.697 138.116 194.81 138.116ZM207.675 130.5V134.206H202.779V130.5H201.657V139H202.779V135.294H207.675V139H208.797V130.5H207.675ZM217.357 130.5L212.291 137.045V130.5H211.169V139H212.121L217.187 132.455V139H218.309V130.5H217.357ZM224.609 130.296C221.974 130.296 220.172 132.251 220.172 134.75C220.172 137.317 222.008 139.204 224.694 139.204C226.411 139.204 227.72 138.405 228.434 137.249L227.448 136.671C226.989 137.487 226.054 138.116 224.711 138.116C222.909 138.116 221.566 137.045 221.328 135.311H228.791C228.808 135.141 228.825 134.954 228.825 134.784C228.825 132.455 227.21 130.296 224.609 130.296ZM224.609 131.384C226.071 131.384 227.431 132.353 227.669 134.223H221.328C221.549 132.557 222.824 131.384 224.609 131.384Z" fill="white"/>
<rect y="56.1331" width="151.165" height="45.1331" rx="22.5666" fill="#FF6F50"/>
<path d="M29.9892 77.8702H26.7592V74.2322H32.5392V73.1102H25.5692V85.0102H29.9892C31.9612 85.0102 33.5592 83.4122 33.5592 81.4402C33.5592 79.4852 31.9612 77.8702 29.9892 77.8702ZM29.9892 83.8882H26.7592V78.9922H29.9892C31.2982 78.9922 32.3692 80.0972 32.3692 81.4402C32.3692 82.8002 31.2982 83.8882 29.9892 83.8882ZM42.6535 76.5102V78.1762C41.9395 77.0372 40.7325 76.3062 39.2195 76.3062C36.8225 76.3062 34.8335 78.2442 34.8335 80.7602C34.8335 83.2762 36.8225 85.2142 39.2195 85.2142C40.7325 85.2142 41.9395 84.4832 42.6535 83.3442V85.0102H43.7755V76.5102H42.6535ZM39.3045 84.1262C37.4175 84.1262 35.9555 82.6472 35.9555 80.7602C35.9555 78.8732 37.4175 77.3942 39.3045 77.3942C41.1915 77.3942 42.6535 78.8732 42.6535 80.7602C42.6535 82.6472 41.1915 84.1262 39.3045 84.1262ZM50.5371 80.6412C51.2511 80.2502 51.6081 79.5532 51.6081 78.7372C51.6081 77.4452 50.5371 76.3062 48.6671 76.3062C47.1031 76.3062 46.1001 77.0712 45.6071 78.1252L46.5421 78.6692C46.8991 77.8022 47.6811 77.3942 48.6671 77.3942C49.8061 77.3942 50.4861 78.0232 50.4861 78.8052C50.4861 79.6552 49.9081 80.1822 48.9221 80.1822H48.0211V81.2702H49.2621C50.2651 81.2702 50.8941 81.8312 50.8941 82.6132C50.8941 83.4632 50.1971 84.1262 48.8371 84.1262C47.4431 84.1262 46.7291 83.4802 46.4231 82.6132L45.4711 83.1742C45.8961 84.2622 46.8821 85.2142 48.8371 85.2142C50.9791 85.2142 52.0161 83.9902 52.0161 82.6812C52.0161 81.7462 51.4891 80.9982 50.5371 80.6412ZM57.1724 79.7402H54.8434V76.5102H53.7214V85.0102H57.1724C58.7194 85.0102 60.0114 83.9392 60.0114 82.3752C60.0114 80.8112 58.7194 79.7402 57.1724 79.7402ZM61.2014 76.5102V85.0102H62.3234V76.5102H61.2014ZM57.1724 83.9222H54.8434V80.8282H57.1724C58.0904 80.8282 58.8894 81.4062 58.8894 82.3752C58.8894 83.3442 58.0904 83.9222 57.1724 83.9222ZM76.1017 83.9222V76.5102H70.0157V80.7092C70.0157 82.3752 69.6927 83.2082 69.1487 83.9222H68.1117V87.2882H69.2337V85.0102H76.1697V87.2882H77.2917V83.9222H76.1017ZM70.5087 83.9222C70.9167 83.1062 71.1377 82.1032 71.1377 80.7092V77.5982H74.9797V83.9222H70.5087ZM85.967 76.5102V78.1762C85.253 77.0372 84.046 76.3062 82.533 76.3062C80.136 76.3062 78.147 78.2442 78.147 80.7602C78.147 83.2762 80.136 85.2142 82.533 85.2142C84.046 85.2142 85.253 84.4832 85.967 83.3442V85.0102H87.089V76.5102H85.967ZM82.618 84.1262C80.731 84.1262 79.269 82.6472 79.269 80.7602C79.269 78.8732 80.731 77.3942 82.618 77.3942C84.505 77.3942 85.967 78.8732 85.967 80.7602C85.967 82.6472 84.505 84.1262 82.618 84.1262ZM95.4826 76.5102V80.2162H90.5866V76.5102H89.4646V85.0102H90.5866V81.3042H95.4826V85.0102H96.6046V76.5102H95.4826ZM104.995 76.5102V80.2162H100.099V76.5102H98.9773V85.0102H100.099V81.3042H104.995V85.0102H106.117V76.5102H104.995ZM111.941 79.7402H109.612V76.5102H108.49V85.0102H111.941C113.488 85.0102 114.78 83.9392 114.78 82.3752C114.78 80.8112 113.488 79.7402 111.941 79.7402ZM115.97 76.5102V85.0102H117.092V76.5102H115.97ZM111.941 83.9222H109.612V80.8282H111.941C112.859 80.8282 113.658 81.4062 113.658 82.3752C113.658 83.3442 112.859 83.9222 111.941 83.9222ZM126.62 85.0102L123.305 80.6072L126.399 76.5102H125.056L122.625 79.7232L120.194 76.5102H118.851L121.962 80.6072L118.63 85.0102H119.973L122.625 81.5082L125.277 85.0102H126.62Z" fill="white"/>
<rect x="268" y="111" width="95" height="45.1331" rx="22.5666" fill="#4B77B9"/>
<path d="M294.074 127.977H289.484V139.877H294.074C297.355 139.877 299.684 137.208 299.684 133.927C299.684 130.646 297.355 127.977 294.074 127.977ZM294.074 138.755H290.674V129.099H294.074C296.726 129.099 298.528 131.258 298.528 133.927C298.528 136.596 296.726 138.755 294.074 138.755ZM305.51 140.081C307.992 140.081 309.981 138.143 309.981 135.627C309.981 133.111 307.992 131.173 305.51 131.173C303.028 131.173 301.039 133.111 301.039 135.627C301.039 138.143 303.028 140.081 305.51 140.081ZM305.51 138.993C303.623 138.993 302.161 137.514 302.161 135.627C302.161 133.74 303.623 132.261 305.51 132.261C307.397 132.261 308.859 133.74 308.859 135.627C308.859 137.514 307.397 138.993 305.51 138.993ZM315.82 140.081C317.486 140.081 318.931 139.214 319.628 137.871L318.693 137.327C318.149 138.313 317.112 138.993 315.82 138.993C313.933 138.993 312.471 137.514 312.471 135.627C312.471 133.74 313.933 132.261 315.82 132.261C317.095 132.261 318.166 132.924 318.625 133.927L319.543 133.4C318.931 132.057 317.503 131.173 315.82 131.173C313.253 131.173 311.349 133.111 311.349 135.627C311.349 138.143 313.253 140.081 315.82 140.081ZM328.107 139.877L323.551 135.457L327.937 131.377H326.407L322.361 135.134V127.977H321.239V139.877H322.361V135.78L326.611 139.877H328.107ZM332.72 131.173C330.085 131.173 328.283 133.128 328.283 135.627C328.283 138.194 330.119 140.081 332.805 140.081C334.522 140.081 335.831 139.282 336.545 138.126L335.559 137.548C335.1 138.364 334.165 138.993 332.822 138.993C331.02 138.993 329.677 137.922 329.439 136.188H336.902C336.919 136.018 336.936 135.831 336.936 135.661C336.936 133.332 335.321 131.173 332.72 131.173ZM332.72 132.261C334.182 132.261 335.542 133.23 335.78 135.1H329.439C329.66 133.434 330.935 132.261 332.72 132.261ZM339.842 132.788V131.377H338.72V139.877H339.842V135.151C339.842 133.043 341.168 132.329 342.528 132.329V131.241C341.44 131.241 340.437 131.598 339.842 132.788Z" fill="white"/>
<rect x="161.165" y="55.1331" width="277.481" height="45.1331" rx="22.5666" fill="#4BD071"/>
<path d="M202.614 78.0602C202.614 75.1702 200.217 73.6062 196.885 73.4532V72.1102H195.695V73.4532C192.363 73.6062 189.966 75.1702 189.966 78.0602C189.966 80.9502 192.363 82.5142 195.695 82.6672V84.0102H196.885V82.6672C200.217 82.5142 202.614 80.9502 202.614 78.0602ZM191.156 78.0602C191.156 75.7992 193.026 74.6772 195.695 74.5412V81.5792C193.026 81.4432 191.156 80.3212 191.156 78.0602ZM196.885 81.5792V74.5412C199.554 74.6772 201.424 75.7992 201.424 78.0602C201.424 80.3212 199.554 81.4432 196.885 81.5792ZM208.865 75.3062C207.352 75.3062 206.145 76.0372 205.431 77.1762V75.5102H204.309V87.4102H205.431V82.3442C206.145 83.4832 207.352 84.2142 208.865 84.2142C211.262 84.2142 213.251 82.2762 213.251 79.7602C213.251 77.2442 211.262 75.3062 208.865 75.3062ZM208.78 83.1262C206.893 83.1262 205.431 81.6472 205.431 79.7602C205.431 77.8732 206.893 76.3942 208.78 76.3942C210.667 76.3942 212.129 77.8732 212.129 79.7602C212.129 81.6472 210.667 83.1262 208.78 83.1262ZM219.043 75.3062C216.408 75.3062 214.606 77.2612 214.606 79.7602C214.606 82.3272 216.442 84.2142 219.128 84.2142C220.845 84.2142 222.154 83.4152 222.868 82.2592L221.882 81.6812C221.423 82.4972 220.488 83.1262 219.145 83.1262C217.343 83.1262 216 82.0552 215.762 80.3212H223.225C223.242 80.1512 223.259 79.9642 223.259 79.7942C223.259 77.4652 221.644 75.3062 219.043 75.3062ZM219.043 76.3942C220.505 76.3942 221.865 77.3632 222.103 79.2332H215.762C215.983 77.5672 217.258 76.3942 219.043 76.3942ZM226.404 74.1502H230.824V73.1642H226.404V74.1502ZM231.232 75.5102L226.166 82.0552V75.5102H225.044V84.0102H225.996L231.062 77.4652V84.0102H232.184V75.5102H231.232ZM242.887 75.5102H241.595L238.722 80.1682L235.849 75.5102H234.557V84.0102H235.679V77.2272L238.654 82.0552H238.79L241.765 77.2272V84.0102H242.887V75.5102ZM250.671 79.6412C251.334 79.2502 251.657 78.6042 251.657 77.7882C251.657 76.4962 250.756 75.5102 249.056 75.5102H245.265V84.0102H249.396C251.198 84.0102 252.065 82.9392 252.065 81.6302C252.065 80.7122 251.589 79.9812 250.671 79.6412ZM249.056 76.5982C250.025 76.5982 250.535 77.0742 250.535 77.8562C250.535 78.7062 250.042 79.1822 249.056 79.1822H246.387V76.5982H249.056ZM249.396 82.9222H246.387V80.2702H249.396C250.399 80.2702 250.943 80.7802 250.943 81.5622C250.943 82.4122 250.416 82.9222 249.396 82.9222ZM257.726 84.2142C260.208 84.2142 262.197 82.2762 262.197 79.7602C262.197 77.2442 260.208 75.3062 257.726 75.3062C255.244 75.3062 253.255 77.2442 253.255 79.7602C253.255 82.2762 255.244 84.2142 257.726 84.2142ZM257.726 83.1262C255.839 83.1262 254.377 81.6472 254.377 79.7602C254.377 77.8732 255.839 76.3942 257.726 76.3942C259.613 76.3942 261.075 77.8732 261.075 79.7602C261.075 81.6472 259.613 83.1262 257.726 83.1262ZM268.63 75.3062C267.117 75.3062 265.91 76.0372 265.196 77.1762V75.5102H264.074V87.4102H265.196V82.3442C265.91 83.4832 267.117 84.2142 268.63 84.2142C271.027 84.2142 273.016 82.2762 273.016 79.7602C273.016 77.2442 271.027 75.3062 268.63 75.3062ZM268.545 83.1262C266.658 83.1262 265.196 81.6472 265.196 79.7602C265.196 77.8732 266.658 76.3942 268.545 76.3942C270.432 76.3942 271.894 77.8732 271.894 79.7602C271.894 81.6472 270.432 83.1262 268.545 83.1262ZM281.75 84.0102L277.194 79.5902L281.58 75.5102H280.05L276.004 79.2672V75.5102H274.882V84.0102H276.004V79.9132L280.254 84.0102H281.75ZM289.47 75.5102L284.404 82.0552V75.5102H283.282V84.0102H284.234L289.3 77.4652V84.0102H290.422V75.5102H289.47ZM303.93 73.2322V72.1102H297.215V84.0102H298.405V78.7402H303.675V77.6182H298.405V73.2322H303.93ZM305.794 84.0102H306.916V71.6002H305.794V84.0102ZM316.607 75.5102V77.1762C315.893 76.0372 314.686 75.3062 313.173 75.3062C310.776 75.3062 308.787 77.2442 308.787 79.7602C308.787 82.2762 310.776 84.2142 313.173 84.2142C314.686 84.2142 315.893 83.4832 316.607 82.3442V84.0102H317.729V75.5102H316.607ZM313.258 83.1262C311.371 83.1262 309.909 81.6472 309.909 79.7602C309.909 77.8732 311.371 76.3942 313.258 76.3942C315.145 76.3942 316.607 77.8732 316.607 79.7602C316.607 81.6472 315.145 83.1262 313.258 83.1262ZM320.989 77.7372C320.989 76.8192 321.89 76.3942 322.774 76.3942C323.59 76.3942 324.457 76.7172 324.814 77.5842L325.749 77.0402C325.256 75.9862 324.168 75.3062 322.774 75.3062C321.074 75.3062 319.867 76.3772 319.867 77.7372C319.867 80.8652 324.831 79.6582 324.831 81.7662C324.831 82.7692 323.879 83.1262 322.876 83.1262C321.737 83.1262 320.853 82.5652 320.547 81.6982L319.595 82.2592C320.02 83.3472 321.176 84.2142 322.876 84.2142C324.695 84.2142 325.953 83.2112 325.953 81.7662C325.953 78.6382 320.989 79.8452 320.989 77.7372ZM334.609 84.0102L330.053 79.5902L334.439 75.5102H332.909L328.863 79.2672V72.1102H327.741V84.0102H328.863V79.9132L333.113 84.0102H334.609ZM346.58 75.5102L341.514 82.0552V75.5102H340.392V84.0102H341.344L346.41 77.4652V84.0102H347.532V75.5102H346.58ZM358.915 72.1102H354.325V84.0102H358.915C362.196 84.0102 364.525 81.3412 364.525 78.0602C364.525 74.7792 362.196 72.1102 358.915 72.1102ZM358.915 82.8882H355.515V73.2322H358.915C361.567 73.2322 363.369 75.3912 363.369 78.0602C363.369 80.7292 361.567 82.8882 358.915 82.8882ZM367.193 72.0762C366.734 72.0762 366.377 72.4502 366.377 72.8922C366.377 73.3342 366.734 73.7082 367.193 73.7082C367.652 73.7082 368.009 73.3342 368.009 72.8922C368.009 72.4502 367.652 72.0762 367.193 72.0762ZM366.632 84.6902C366.632 86.1522 366.003 86.6622 364.694 86.5262V87.6142C366.649 87.7842 367.754 86.7302 367.754 84.6902V75.5102H366.632V84.6902ZM377.452 75.5102V77.1762C376.738 76.0372 375.531 75.3062 374.018 75.3062C371.621 75.3062 369.632 77.2442 369.632 79.7602C369.632 82.2762 371.621 84.2142 374.018 84.2142C375.531 84.2142 376.738 83.4832 377.452 82.3442V84.0102H378.574V75.5102H377.452ZM374.103 83.1262C372.216 83.1262 370.754 81.6472 370.754 79.7602C370.754 77.8732 372.216 76.3942 374.103 76.3942C375.99 76.3942 377.452 77.8732 377.452 79.7602C377.452 81.6472 375.99 83.1262 374.103 83.1262ZM384.927 75.3062C383.72 75.3062 382.734 75.7652 382.071 76.8362V75.5102H380.949V84.0102H382.071V79.5562C382.071 77.2782 383.329 76.3942 384.825 76.3942C386.304 76.3942 387.137 77.2782 387.137 78.7912V84.0102H388.259V78.7912C388.259 76.6662 387.001 75.3062 384.927 75.3062ZM397.739 75.5102V77.1762C397.025 76.0372 395.818 75.3062 394.305 75.3062C391.908 75.3062 389.919 77.2442 389.919 79.7602C389.919 82.2762 391.908 84.2142 394.305 84.2142C395.818 84.2142 397.025 83.4832 397.739 82.3442V83.6702C397.739 85.4042 396.566 86.5262 394.594 86.5262C392.758 86.5262 391.976 85.8462 391.551 84.9792L390.565 85.5402C391.228 86.8662 392.639 87.6142 394.594 87.6142C396.787 87.6142 398.861 86.2542 398.861 83.6702V75.5102H397.739ZM394.39 83.1262C392.503 83.1262 391.041 81.6472 391.041 79.7602C391.041 77.8732 392.503 76.3942 394.39 76.3942C396.277 76.3942 397.739 77.8732 397.739 79.7602C397.739 81.6472 396.277 83.1262 394.39 83.1262ZM405.198 84.2142C407.68 84.2142 409.669 82.2762 409.669 79.7602C409.669 77.2442 407.68 75.3062 405.198 75.3062C402.716 75.3062 400.727 77.2442 400.727 79.7602C400.727 82.2762 402.716 84.2142 405.198 84.2142ZM405.198 83.1262C403.311 83.1262 401.849 81.6472 401.849 79.7602C401.849 77.8732 403.311 76.3942 405.198 76.3942C407.085 76.3942 408.547 77.8732 408.547 79.7602C408.547 81.6472 407.085 83.1262 405.198 83.1262Z" fill="white"/>
<rect x="321" width="89" height="45.1331" rx="22.5666" fill="#FFB359"/>
<path d="M352.829 29.0811C355.056 29.0811 357.011 27.9081 357.98 26.1401L356.926 25.5451C356.195 26.9731 354.614 27.9251 352.829 27.9251C349.82 27.9251 347.78 25.6981 347.78 22.9271C347.78 20.1561 349.82 17.9291 352.829 17.9291C354.614 17.9291 356.195 18.8811 356.926 20.3091L357.98 19.6971C356.994 17.9291 355.039 16.7731 352.829 16.7731C349.174 16.7731 346.59 19.5271 346.59 22.9271C346.59 26.3271 349.174 29.0811 352.829 29.0811ZM363.611 20.1731C360.976 20.1731 359.174 22.1281 359.174 24.6271C359.174 27.1941 361.01 29.0811 363.696 29.0811C365.413 29.0811 366.722 28.2821 367.436 27.1261L366.45 26.5481C365.991 27.3641 365.056 27.9931 363.713 27.9931C361.911 27.9931 360.568 26.9221 360.33 25.1881H367.793C367.81 25.0181 367.827 24.8311 367.827 24.6611C367.827 22.3321 366.212 20.1731 363.611 20.1731ZM363.611 21.2611C365.073 21.2611 366.433 22.2301 366.671 24.1001H360.33C360.551 22.4341 361.826 21.2611 363.611 21.2611ZM375.4 20.3771H368.26V21.4651H371.269V28.8771H372.391V21.4651H375.4V20.3771ZM382.955 20.3771L377.889 26.9221V20.3771H376.767V28.8771H377.719L382.785 22.3321V28.8771H383.907V20.3771H382.955Z" fill="white"/>
<rect x="373" y="110" width="93.8332" height="45.1331" rx="22.5666" fill="#AF93FF"/>
<path d="M421.004 133.216H415.054V134.338H419.78C419.559 136.327 417.961 137.925 415.19 137.925C412.181 137.925 410.141 135.698 410.141 132.927C410.141 130.156 412.181 127.929 415.19 127.929C416.975 127.929 418.556 128.881 419.287 130.309L420.341 129.697C419.355 127.946 417.417 126.773 415.19 126.773C411.535 126.773 408.951 129.527 408.951 132.927C408.951 136.327 411.535 139.081 415.19 139.081C418.845 139.081 421.004 136.667 421.004 133.828V133.216ZM423.436 128.575C423.895 128.575 424.252 128.201 424.252 127.759C424.252 127.317 423.895 126.943 423.436 126.943C422.977 126.943 422.62 127.317 422.62 127.759C422.62 128.201 422.977 128.575 423.436 128.575ZM422.875 138.877H423.997V130.377H422.875V138.877ZM430.883 131.465V130.377H428.435V127.997L427.313 128.337V130.377H425.528V131.465H427.313V136.616C427.313 138.656 428.588 139.217 430.883 138.877V137.891C429.234 137.959 428.435 138.078 428.435 136.616V131.465H430.883Z" fill="white"/>
</svg>
